PathFileType	4	(X/Y/Z)	D:\Documents\Paper\paper_03\paper_step_1_data\data_step_3\marker\BD\subject_01.tsv
DataRate	CameraRate	NumFrames	NumMarkers	Units	OrigDataRate	OrigDataStartFrame	OrigNumFrames
200	200	8	43	mm	200	301	200
Frame#	Time	Top.Head			L.Acromium			R.Acromium			Sternum			L.ASIS			R.ASIS			V.Sacral			R.Knee.Lat			R.Knee.Med			L.Knee.Lat			L.Knee.Med			L.Ankle.Lat			L.Toe.Tip			R.Heel			R.Ankle.Med			R.Ankle.Lat			L.Toe.Med			L.Toe.Lat			L.Heel			L.Ankle.Med			L.Shank1			L.Shank2			R.Toe.Tip			R.Toe.Med			R.Toe.Lat			L.Thigh2			L.Thigh1			L.Thigh3			R.Thigh3			R.Thigh1			R.Thigh2			R.Shank1			R.Shank2			R.Shank3			L.Shank3			L.Shank4			R.Shank4			L.Thigh4			R.Thigh4			R.Heel.Lat			R.Heel.Med			L.Heel.Lat			L.Heel.Med		
		X1	Y1	Z1	X2	Y2	Z2	X3	Y3	Z3	X4	Y4	Z4	X5	Y5	Z5	X6	Y6	Z6	X7	Y7	Z7	X8	Y8	Z8	X9	Y9	Z9	X10	Y10	Z10	X11	Y11	Z11	X12	Y12	Z12	X13	Y13	Z13	X14	Y14	Z14	X15	Y15	Z15	X16	Y16	Z16	X17	Y17	Z17	X18	Y18	Z18	X19	Y19	Z19	X20	Y20	Z20	X21	Y21	Z21	X22	Y22	Z22	X23	Y23	Z23	X24	Y24	Z24	X25	Y25	Z25	X26	Y26	Z26	X27	Y27	Z27	X28	Y28	Z28	X29	Y29	Z29	X30	Y30	Z30	X31	Y31	Z31	X32	Y32	Z32	X33	Y33	Z33	X34	Y34	Z34	X35	Y35	Z35	X36	Y36	Z36	X37	Y37	Z37	X38	Y38	Z38	X39	Y39	Z39	X40	Y40	Z40	X41	Y41	Z41	X42	Y42	Z42	X43	Y43	Z43
1698	8.485	923.722	1692.927	-991.748	931.899	1409.803	-817.277	1091.069	1399.864	-1089.529	899.209	1359.121	-1019.024	803.286	911.762	-932.924	926.42	931.576	-1134.693	1007.647	964.317	-953.665	1002.917	475.028	-1166.001	947.937	454.706	-1065.901	848.455	476.17	-847.848	885.366	456.75	-950.511	906.931	102.783	-808.754	726.896	56.339	-869.037	1104.908	34.395	-1104.213	990.161	103.252	-1115.315	1060.709	104.908	-1173.94	786.853	45.256	-907.887	793.442	46.354	-802.813	1001.33	31.504	-814.6	927.079	104.554	-894.663	831.358	388.142	-836.564	828.886	307.495	-819.649	876.079	54.378	-1277.144	899.997	44.527	-1205.421	986.48	37.46	-1275.044	790.522	612.845	-879.371	791.622	695.743	-875.623	835.855	692.171	-830.135	1030.667	656.693	-1156.207	976.119	647.984	-1189.461	977.195	565.014	-1182.394	987.377	390.201	-1205.094	1002.901	303.995	-1210.646	1046.579	399.436	-1181.911	882.905	395.942	-801.715	884.918	309.857	-785.228	1061.997	317.407	-1187.573	837.305	603.529	-833.822	1030.543	568.286	-1149.532	1098.26	32.198	-1172.66	1024.775	25.297	-1101.013	935.306	22.334	-780.104	956.471	27.296	-883.61
1699	8.49	923.72	1692.916	-991.735	931.92	1409.782	-817.289	1091.088	1399.851	-1089.537	899.237	1359.121	-1019.02	803.296	911.785	-932.911	926.441	931.579	-1134.694	1007.66	964.293	-953.667	1002.928	475.006	-1165.99	947.958	454.695	-1065.879	848.462	476.203	-847.848	885.399	456.773	-950.506	906.919	102.818	-808.747	726.909	56.345	-869.04	1104.896	34.357	-1104.218	990.195	103.224	-1115.292	1060.746	105.017	-1173.987	786.89	45.27	-907.903	793.438	46.358	-802.803	1001.363	31.471	-814.607	927.035	104.519	-894.695	831.39	388.15	-836.58	828.89	307.518	-819.645	876.08	54.385	-1277.142	899.987	44.522	-1205.421	986.475	37.438	-1275.033	790.537	612.859	-879.364	791.641	695.743	-875.63	835.82	692.209	-830.13	1030.676	656.665	-1156.189	976.131	647.949	-1189.431	977.2	565.022	-1182.403	987.397	390.2	-1205.1	1002.893	303.975	-1210.642	1046.583	399.41	-1181.88	882.895	395.949	-801.718	884.914	309.854	-785.252	1061.973	317.41	-1187.594	836.598	604.542	-833.34	1030.576	568.263	-1149.492	1098.244	32.172	-1172.694	1024.765	25.297	-1101.013	935.308	22.344	-780.081	956.475	27.304	-883.621
1700	8.495	923.728	1692.924	-991.786	931.961	1409.804	-817.266	1091.105	1399.873	-1089.563	899.237	1359.118	-1019.047	803.305	911.771	-932.892	926.475	931.581	-1134.705	1007.704	964.321	-953.655	1002.945	475.028	-1165.979	947.967	454.727	-1065.871	848.464	476.187	-847.834	885.42	456.764	-950.519	906.947	102.804	-808.732	726.9	56.358	-869.042	1104.883	34.366	-1104.2	990.134	103.228	-1115.321	1060.531	104.797	-1174.073	786.868	45.271	-907.895	793.438	46.364	-802.826	1001.349	31.485	-814.597	927.051	104.551	-894.661	831.433	388.2	-836.536	828.894	307.52	-819.66	876.044	54.409	-1277.166	899.994	44.541	-1205.408	986.47	37.447	-1275.042	790.547	612.871	-879.363	791.66	695.767	-875.619	835.88	692.196	-830.132	1030.711	656.672	-1156.166	976.14	647.995	-1189.447	977.203	565.015	-1182.4	987.404	390.202	-1205.099	1002.897	303.962	-1210.618	1046.602	399.43	-1181.907	882.923	395.959	-801.708	884.939	309.838	-785.236	1061.985	317.399	-1187.572	837.351	603.519	-833.852	1030.556	568.247	-1149.527	1098.27	32.176	-1172.702	1024.795	25.288	-1101.018	935.339	22.293	-780.092	956.487	27.312	-883.622
1701	8.5	923.732	1692.901	-991.782	931.974	1409.796	-817.314	1091.121	1399.855	-1089.558	899.271	1359.099	-1019.044	803.324	911.779	-932.914	926.477	931.58	-1134.67	1007.74	964.313	-953.663	1002.955	475.023	-1165.977	947.993	454.711	-1065.839	848.48	476.201	-847.839	885.432	456.765	-950.482	906.969	102.815	-808.763	726.912	56.347	-869.03	1104.903	34.365	-1104.198	990.16	103.271	-1115.31	1060.622	105.019	-1173.99	786.839	45.253	-907.896	793.445	46.35	-802.816	1001.364	31.53	-814.567	927.029	104.559	-894.682	831.452	388.213	-836.56	828.92	307.536	-819.642	876.064	54.403	-1277.179	899.991	44.515	-1205.422	986.451	37.471	-1275.036	790.561	612.87	-879.378	791.686	695.744	-875.616	835.873	692.195	-830.123	1030.73	656.692	-1156.194	976.124	647.977	-1189.458	977.208	565.01	-1182.405	987.419	390.196	-1205.087	1002.915	303.973	-1210.633	1046.598	399.446	-1181.898	882.91	395.951	-801.691	884.922	309.855	-785.215	1061.998	317.401	-1187.537	837.4	603.507	-833.867	1030.573	568.272	-1149.519	1098.271	32.207	-1172.673	1024.783	25.293	-1101.012	935.311	22.296	-780.073	956.471	27.305	-883.617
1702	8.505	923.753	1692.912	-991.824	931.999	1409.827	-817.288	1091.148	1399.875	-1089.592	899.283	1359.112	-1019.068	803.333	911.78	-932.899	926.504	931.579	-1134.691	1007.731	964.343	-953.64	1002.956	475.038	-1165.972	948.011	454.701	-1065.829	848.502	476.221	-847.825	885.412	456.747	-950.46	906.935	102.829	-808.741	726.895	56.336	-869.052	1104.909	34.361	-1104.192	990.162	103.257	-1115.28	1060.656	104.88	-1173.958	786.891	45.255	-907.879	793.456	46.369	-802.805	1001.361	31.52	-814.587	927.029	104.587	-894.66	831.43	388.214	-836.566	828.922	307.514	-819.626	876.057	54.448	-1277.179	899.99	44.522	-1205.419	986.473	37.456	-1275.038	790.586	612.866	-879.37	791.694	695.755	-875.606	835.892	692.203	-830.125	1030.714	656.66	-1156.179	976.158	647.948	-1189.425	977.244	565.011	-1182.386	987.424	390.214	-1205.067	1002.916	303.985	-1210.623	1046.605	399.446	-1181.909	882.938	395.943	-801.68	884.926	309.854	-785.195	1061.982	317.365	-1187.536	836.616	604.527	-833.393	1030.6	568.288	-1149.536	1098.277	32.186	-1172.69	1024.798	25.292	-1100.997	935.317	22.332	-780.093	956.486	27.278	-883.595
1703	8.51	923.761	1692.877	-991.783	932.012	1409.824	-817.287	1091.157	1399.866	-1089.602	899.327	1359.103	-1019.046	803.348	911.785	-932.877	926.508	931.574	-1134.662	1007.757	964.318	-953.621	1002.951	475.055	-1165.989	948.021	454.714	-1065.848	848.5	476.191	-847.831	885.472	456.762	-950.462	906.938	102.83	-808.741	726.9	56.362	-869.061	1104.919	34.352	-1104.208	990.171	103.268	-1115.322	1060.694	105.096	-1173.969	786.873	45.238	-907.881	793.45	46.345	-802.833	1001.364	31.451	-814.593	927.063	104.565	-894.659	831.464	388.226	-836.583	828.928	307.517	-819.645	876.023	54.442	-1277.195	899.991	44.487	-1205.44	986.486	37.48	-1275.049	790.578	612.857	-879.344	791.686	695.754	-875.613	835.911	692.218	-830.103	1030.734	656.695	-1156.175	976.156	647.96	-1189.436	977.236	565.002	-1182.351	987.42	390.206	-1205.074	1002.937	303.995	-1210.62	1046.631	399.407	-1181.871	882.93	395.968	-801.695	884.948	309.884	-785.19	1062.037	317.369	-1187.538	836.622	604.519	-833.377	1030.61	568.328	-1149.534	1098.279	32.232	-1172.688	1024.815	25.32	-1101.002	935.336	22.352	-780.08	956.487	27.308	-883.614
1704	8.515	923.765	1692.906	-991.845	932.064	1409.824	-817.281	1091.161	1399.858	-1089.614	899.353	1359.107	-1019.055	803.367	911.772	-932.889	926.525	931.59	-1134.678	1007.774	964.302	-953.603	1002.979	475.039	-1165.97	947.982	454.734	-1065.85	848.537	476.221	-847.796	885.547	456.754	-950.428	906.954	102.796	-808.735	726.895	56.376	-869.105	1104.9	34.379	-1104.2	990.155	103.243	-1115.261	1060.686	105.022	-1173.946	786.853	45.208	-907.902	793.468	46.372	-802.811	1001.367	31.508	-814.578	927.053	104.578	-894.67	831.455	388.181	-836.586	828.934	307.541	-819.624	876.019	54.509	-1277.226	899.992	44.504	-1205.403	986.467	37.442	-1275.025	790.607	612.875	-879.334	791.721	695.762	-875.61	835.939	692.186	-830.123	1030.749	656.697	-1156.179	976.173	647.94	-1189.427	977.264	564.994	-1182.337	987.456	390.208	-1205.072	1002.953	303.963	-1210.608	1046.638	399.434	-1181.876	882.999	395.969	-801.681	884.971	309.872	-785.202	1062.041	317.357	-1187.534	836.655	604.525	-833.388	1030.641	568.277	-1149.483	1098.279	32.189	-1172.707	1024.772	25.307	-1101.004	935.295	22.369	-780.089	956.498	27.298	-883.612
1705	8.52	923.758	1692.903	-991.855	932.067	1409.859	-817.317	1091.178	1399.857	-1089.634	899.332	1359.089	-1019.038	803.372	911.787	-932.879	926.544	931.57	-1134.634	1007.785	964.316	-953.618	1003.01	475.029	-1165.945	948.041	454.704	-1065.847	848.524	476.236	-847.792	885.452	456.738	-950.457	906.965	102.789	-808.721	726.898	56.374	-869.115	1104.925	34.391	-1104.223	990.184	103.232	-1115.309	1060.601	104.883	-1174.041	786.86	45.252	-907.912	793.453	46.364	-802.838	1001.403	31.504	-814.622	927.094	104.552	-894.671	831.428	388.206	-836.606	828.945	307.517	-819.603	876.021	54.507	-1277.235	900.005	44.518	-1205.416	986.463	37.465	-1275.044	790.616	612.872	-879.332	791.729	695.76	-875.608	835.941	692.204	-830.104	1030.755	656.692	-1156.137	976.211	647.953	-1189.417	977.274	565.023	-1182.355	987.459	390.199	-1205.057	1002.963	303.994	-1210.602	1046.659	399.421	-1181.863	882.979	395.951	-801.676	884.976	309.86	-785.208	1062.049	317.357	-1187.516	837.372	603.564	-833.87	1030.612	568.282	-1149.514	1098.269	32.209	-1172.701	1024.778	25.286	-1101.025	935.339	22.288	-780.121	956.487	27.326	-883.641
